<?xml version="1.0" encoding="UTF-8" standalone="no"?>
<svg xmlns:dc="http://purl.org/dc/elements/1.1/" xmlns:cc="http://creativecommons.org/ns#" xmlns:rdf="http://www.w3.org/1999/02/22-rdf-syntax-ns#" xmlns:svg="http://www.w3.org/2000/svg" xmlns="http://www.w3.org/2000/svg" xmlns:xlink="http://www.w3.org/1999/xlink" id="svg858" version="1.1" viewBox="0 0 210.24719 172.11024" height="172.11024mm" width="210.24719mm">
  <defs id="defs852"/>
  <metadata id="metadata855">
    <rdf:RDF>
      <cc:Work rdf:about="">
        <dc:format>image/svg+xml</dc:format>
        <dc:type rdf:resource="http://purl.org/dc/dcmitype/StillImage"/>
        <dc:title/>
      </cc:Work>
    </rdf:RDF>
  </metadata>
  <g transform="translate(-2.6859279,-54.462737)" id="layer1">
    <path d="m 183.31445,143.8457 c -1.60006,0.1727 -0.50392,0.053 -1.75586,0.19922 -1.08804,0.12786 -2.67193,0.31612 -4.68359,0.55664 -4.02332,0.48106 -9.7573,1.17059 -16.64648,2.00196 -13.77837,1.66272 -32.17799,3.89202 -50.75196,6.14843 -18.573968,2.25642 -37.32261,4.53949 -51.798826,6.3125 -14.476215,1.77301 -24.575597,3.02069 -26.191406,3.25196 a 1.5352522,1.5352522 0 0 0 -1.291016,1.80468 l 7.087891,37.53321 a 1.5352522,1.5352522 0 0 0 1.511719,1.25 c 77.365158,-0.22842 115.994848,-0.30159 135.310548,-0.33789 9.65785,-0.0182 14.48563,-0.026 16.92187,-0.041 1.21813,-0.008 1.8289,-0.0171 2.19336,-0.0312 0.18223,-0.007 0.29049,-0.008 0.48633,-0.041 0.19584,-0.0331 0.76426,-0.33325 0.77735,-0.34374 5.5e-4,-4.5e-4 0.28076,-0.2843 0.3496,-0.39649 0.0688,-0.11219 0.10602,-0.20104 0.13282,-0.27344 0.0536,-0.1448 0.0673,-0.22934 0.0781,-0.29687 0.0217,-0.13507 0.0207,-0.19808 0.0215,-0.25391 0.002,-0.11166 -0.004,-0.17739 -0.01,-0.25 -0.011,-0.14521 -0.0282,-0.29783 -0.0527,-0.49219 -0.049,-0.38871 -0.12763,-0.92486 -0.23243,-1.60937 -0.20959,-1.36902 -0.52695,-3.32435 -0.93359,-5.74414 -0.81327,-4.83959 -1.97811,-11.52909 -3.31641,-19.01172 -1.31102,-7.33048 -2.5218,-14.10721 -3.41601,-19.11719 -0.89422,-5.00997 -1.49018,-8.35818 -1.51563,-8.50976 a 1.5352522,1.5352522 0 0 0 0,-0.002 c -0.0756,-0.44582 -0.18585,-0.86541 -0.45703,-1.30078 -0.27117,-0.43537 -0.84549,-0.9383 -1.55859,-1.0039 -0.008,-2.5e-4 -0.23461,-0.004 -0.25977,-0.002 z" id="path3011" style="display:inline;fill:#ffffff;stroke-width:0.28222102" xlink:href="#path3009" transform="translate(-1.5574388,-1.5176048)"/>
    <path d="m 98.554688,121.67383 c -0.697925,-0.0735 -1.137118,0.0351 -1.984376,0.17578 -0.847257,0.14068 -1.981672,0.357 -3.503906,0.65625 -3.044468,0.5985 -7.62722,1.52468 -14.339844,2.79297 -1.943137,0.36665 -4.466087,0.85481 -6.03125,1.16601 a 1.6102169,1.6102169 0 0 0 0,0.002 c -0.767675,0.15289 -2.447977,0.46652 -3.691406,0.68945 v -0.002 c -1.274369,0.22751 -3.270639,0.60673 -4.478515,0.84765 V 128 c -1.17987,0.23431 -3.452874,0.6693 -5.027344,0.96094 -1.592478,0.2943 -4.784805,0.89328 -7.099609,1.33203 -2.313523,0.4379 -5.073241,0.95582 -6.123047,1.15039 -1.064038,0.19739 -2.855867,0.5387 -3.994141,0.75976 l -2.060547,0.4004 a 1.6102169,1.6102169 0 0 0 -1.271484,1.26171 c -0.135144,0.67053 -0.470825,2.79344 -1.09961,7.05469 -0.628784,4.26125 -1.525424,10.54012 -2.691406,19.11133 a 1.6102169,1.6102169 0 0 0 1.775391,1.81641 c 0.686337,-0.0773 0.01917,-0.0235 2.15625,-0.27539 a 1.6102169,1.6102169 0 0 0 0.002,0 c 1.255516,-0.14838 3.402522,-0.41534 4.791015,-0.59571 v 0.002 c 1.381857,-0.1786 3.634913,-0.47038 5.013672,-0.64649 1.384816,-0.17697 3.369353,-0.44154 4.4375,-0.5918 1.035849,-0.14498 2.600155,-0.34353 3.419922,-0.43359 0.885441,-0.0975 3.18232,-0.3784 5.160156,-0.63281 7.258696,-0.93297 11.613703,-1.48469 18.257813,-2.30664 10.708775,-1.32541 13.13597,-1.87651 16.21875,-2.13281 a 1.6102169,1.6102169 0 0 0 1.474609,-1.49805 c 1.406791,-21.22426 1.162076,-12.51586 2.128907,-29.36914 a 1.6102169,1.6102169 0 0 0 -1.439453,-1.69336 z" id="path3007" style="display:inline;fill:#ffffff;stroke-width:0.23999105" xlink:href="#path3005" transform="translate(-1.5574388,-1.5176048)"/>
    <g style="display:inline;fill:#000000;fill-opacity:1" transform="matrix(-0.90664898,0,0,0.9199857,198.57103,-16.798147)" id="layer1-3-3-0-4-5-0-1-8">
      <path id="path3026" d="m 23.275391,82.904297 c -3.663775,0.67252 -7.508632,2.701279 -9.96875,5.492187 -1.260214,3.897262 -0.902896,7.877991 -1.699219,11.882816 -1.204839,6.05931 2.44295,0.76172 2.117187,3.96679 -0.394288,2.61399 2.491094,3.24776 2.025391,6.04102 0.629371,4.27542 3.352217,1.46194 4.0625,1.20898 1.070532,2.61874 4.295775,0.0641 4.199925,2.82652 1.634892,0.59789 2.432137,-0.95286 3.155544,1.65005 -0.315297,1.93807 4.037081,3.23951 0.738281,3.66015 -3.354944,1.34691 -6.11963,3.9572 -7.980469,6.62696 -2.743919,-0.0998 -4.382775,2.83356 -6.989613,1.22098 -1.200526,1.92059 -1.749213,1.87117 -3.2928187,0.39091 -2.5209173,1.77031 -2.4478644,1.54119 -5.0163962,-0.10412 -3.0989066,0.29103 -2.2598064,4.02235 -3.8144531,5.83984 -0.56279395,4.81891 0.9731629,10.80594 6.5410156,11.75391 9.5808234,3.65914 19.8044814,-0.21382 29.6386724,-0.0527 1.34278,5.9954 6.207399,9.8431 10.671874,13.32813 -1.535483,2.75211 -0.240748,6.15909 -1.480468,8.95508 -4.677031,-2.70881 -11.932969,-0.52155 -14.56836,4.07422 -1.065107,2.87203 2.364277,4.49695 0.0061,7.49131 2.297138,-0.96113 7.719159,-9.27605 11.976278,-4.77842 1.51021,1.27108 3.392253,2.96337 5.501953,2.39453 -2.661815,2.14112 -4.622801,6.46872 -1.773437,8.83008 0.654061,4.74538 5.18036,0.79881 6.044922,-1.85352 2.191258,-2.44673 6.145218,-6.00255 9.607422,-4.26172 4.965466,2.96398 1.111025,9.15109 1.546612,13.80341 -0.805254,8.11514 -0.37828,19.14163 8.494403,22.71808 3.131164,2.57236 7.553463,5.76778 8.72461,9.02929 -3.965539,6.19467 -11.444594,10.13002 -18.681641,10.08008 -4.7313,-1.10411 -7.822555,3.46312 -12.011719,4.56836 -2.87301,1.38659 -5.550125,6.36137 -2.033203,8.38281 -0.22772,4.27668 4.024556,2.95512 5.875,0.59961 1.673661,1.19883 5.136063,0.17219 4.810547,2.81836 2.013915,4.27553 4.804877,-1.64254 7.388672,-0.32812 7.64365,-1.52998 14.918059,-4.90688 22.875,-4.92188 6.837277,-0.88161 4.889563,-9.42187 5.773437,-14.14453 1.243632,-4.6642 5.40311,-10.35802 1.070313,-14.72266 -3.712667,-3.93839 -2.368713,-10.3489 -6.289063,-14.3789 4.827349,-1.07055 10.664,-4.9237 14.88477,-0.69922 5.39946,5.72698 10.5146,12.67426 18.6582,14.40039 7.52107,4.30169 1.81626,13.80139 -1.82031,18.96289 -2.45164,3.12856 -6.47518,5.05376 -9.89648,6.57422 -3.04969,-0.78866 -5.65305,0.95506 -7.85743,2.44531 -3.76437,1.01698 -8.17088,7.46009 -3.75,9.94727 2.13109,0.26655 6.34926,-4.02997 5.4961,0.57031 0.10576,3.81952 4.60874,2.91356 5.42578,0.041 2.43258,0.55855 5.4161,-0.0973 5.89648,2.88085 1.7589,2.36356 4.09722,-0.0485 4.86133,-1.67773 5.37605,0.8272 9.51889,-3.49557 14.61133,-4.17773 5.61715,-4.14535 6.17552,-12.2945 6.57227,-18.74805 -0.03,-4.6475 -1.6985,-9.46545 0.67968,-13.76953 1.24941,-5.50046 -4.67934,-8.81615 -4.86523,-14.10742 -1.32008,-2.46204 -3.70014,-4.16245 -6.125,-5.43165 16.65475,-2.46913 33.94286,-3.48575 50.04883,2.37891 8.75091,2.63595 16.85151,7.17413 25.22656,10.62109 4.92799,-1.89592 -0.6751,-6.50341 -2.84961,-8.55468 -12.2943,-11.15878 -28.87075,-15.72602 -43.89258,-21.97266 -11.86491,-4.53942 -25.44713,-7.36958 -32.94531,-18.68945 -7.18542,-7.31287 -16.55167,-12.1296 -23.04297,-20.24414 -7.336226,-8.6859 -19.202406,-10.99788 -30.037113,-10.34961 -2.084508,-3.20362 -6.117835,-5.66435 -7.378906,-9.06641 1.783086,-5.74582 1.412467,-12.62983 -2.289063,-17.49609 -0.01889,-4.20929 -2.844151,-8.998876 -7.785156,-8.042971 C 45.707788,98.259072 39.628133,83.971523 27.191406,83.046875 25.894579,82.842591 24.582062,82.899765 23.275391,82.904297 Z M 53.230469,172.3457 c 3.185498,1.12606 -3.354186,4.12378 -1.236328,1.40821 0.273459,-0.37625 0.852087,-2.14958 1.236328,-1.40821 z" style="display:inline;fill:#ffffff;fill-opacity:1;stroke-width:0.35277778"/>
      <path style="display:inline;fill:#ffffff;fill-opacity:1;stroke-width:0.35277778" d="m 118.79125,256.24249 c -0.2371,-0.52037 -0.31649,-1.48907 -0.18793,-2.29305 0.24538,-1.53447 -0.0971,-1.76487 -1.02044,-0.6865 -0.70529,0.82372 -1.66651,0.88409 -3.81815,0.23983 -2.24669,-0.67272 -3.70332,-0.21169 -4.36962,1.38299 -0.78793,1.88578 -1.32323,1.17538 -1.18607,-1.57405 l 0.11683,-2.34183 -2.14238,0.001 c -1.75033,7.1e-4 -2.41311,0.1801 -3.6218,0.97997 -1.25329,0.82939 -1.51183,0.89462 -1.69137,0.42674 -0.11657,-0.30377 0.0631,-1.27246 0.39925,-2.15266 0.70119,-1.83605 2.7238,-3.51431 4.67696,-3.88073 0.76098,-0.14276 1.30202,-0.47486 1.40306,-0.86123 0.25905,-0.99063 1.9916,-1.51035 4.32852,-1.29844 1.54346,0.13995 2.19707,0.0606 2.49928,-0.30358 0.22508,-0.27121 1.89542,-1.29666 3.71186,-2.27878 3.79621,-2.05256 4.94958,-3.09747 7.12109,-6.45152 7.34185,-11.33996 6.23554,-18.83558 -3.1645,-21.44046 -1.47065,-0.40754 -3.21865,-1.20393 -4.14869,-1.89016 -1.69536,-1.25091 -7.84204,-7.43157 -10.79495,-10.85463 l -1.7484,-2.02689 -3.08091,-0.31004 c -3.678333,-0.37016 -5.332763,-0.10619 -8.384373,1.33774 -2.91977,1.38154 -6.05721,1.51851 -7.56769,0.33037 l -0.96006,-0.75519 -0.91137,0.91137 c -1.19026,1.19025 -0.69466,1.83846 1.64271,2.14853 2.1749,0.2885 3.27839,1.3413 4.84733,4.62465 0.79366,1.66089 1.29602,3.3828 1.53359,5.25658 0.31619,2.49382 0.51103,2.98654 1.85454,4.68985 3.34505,4.24086 3.37441,4.51448 1.10125,10.26168 -1.58704,4.01247 -1.64158,4.27702 -1.87044,9.07189 -0.36023,7.54709 -0.46318,7.64918 -8.31291,8.24422 -3.76073,0.28507 -4.97927,0.56446 -10.915,2.5026 -5.53986,1.80888 -6.82374,2.11696 -7.51312,1.80285 -1.30288,-0.59363 -1.75519,-0.46863 -3.27602,0.90536 -0.7818,0.7063 -1.51828,1.18736 -1.63663,1.06902 -0.44171,-0.44172 -0.19428,-3.06766 0.37024,-3.92922 0.51906,-0.7922 0.52326,-0.89345 0.037,-0.89345 -0.30161,0 -0.63681,0.23045 -0.74489,0.51211 -0.26229,0.68352 -2.50252,1.41196 -3.05819,0.99441 -0.7867,-0.59114 -3.31736,-1.23574 -4.00039,-1.01896 -0.37149,0.11791 -1.19777,0.69145 -1.83615,1.27452 -0.63839,0.58308 -1.23029,1.06015 -1.31533,1.06015 -0.085,0 -0.15461,-0.79375 -0.15461,-1.76389 0,-1.78443 -0.22805,-2.10029 -0.97622,-1.35212 -0.65195,0.65195 -0.94503,-0.59131 -0.4316,-1.83084 0.67585,-1.63165 2.62398,-3.10988 4.95109,-3.75688 1.27713,-0.35507 2.10117,-0.77629 2.10117,-1.07404 0,-0.26942 0.99219,-0.95183 2.20486,-1.51645 1.99085,-0.92694 2.35895,-0.99118 3.79236,-0.66183 2.14184,0.49213 3.3595,0.277 8.10898,-1.43262 4.65022,-1.67389 6.31441,-2.57505 8.29519,-4.49185 2.18572,-2.11511 5.46724,-6.18833 5.47533,-6.7963 0.008,-0.62146 -7.83281,-8.31654 -9.81652,-9.63374 -0.71679,-0.47596 -2.06401,-1.29579 -2.99382,-1.82183 -2.26745,-1.28283 -3.54626,-3.16101 -4.46134,-6.55234 -1.21307,-4.49569 -1.28051,-7.78542 -0.35103,-17.12193 0.82312,-8.26806 0.82439,-8.34803 0.13906,-8.71639 -0.38043,-0.20448 -1.34584,-1.06294 -2.14538,-1.9077 -1.43807,-1.51941 -1.47946,-1.53592 -3.85096,-1.53592 -1.66389,0 -2.5682,0.16394 -2.95602,0.5359 -0.30732,0.29474 -1.4261,0.97471 -2.48618,1.51103 -1.42922,0.72308 -2.41835,1.6104 -3.82675,3.43285 -1.04463,1.35174 -2.04664,2.77522 -2.22668,3.16327 -0.23083,0.4975 -0.27816,0.16408 -0.1605,-1.13071 0.0918,-1.00995 0.42359,-2.22809 0.73736,-2.70698 0.54759,-0.83572 0.54091,-0.86296 -0.1664,-0.678 -0.4053,0.10599 -1.05058,0.59148 -1.43396,1.07886 -0.53434,0.6793 -0.69704,0.74824 -0.69704,0.29535 0,-1.1342 1.40608,-3.33355 2.92902,-4.58149 1.51841,-1.24422 5.09317,-3.03675 6.05605,-3.03675 1.08145,0 0.85511,-0.76973 -0.69863,-2.37584 -0.89447,-0.92461 -1.88906,-2.11767 -2.21021,-2.65124 -0.32115,-0.53358 -0.6872,-0.97014 -0.81344,-0.97014 -0.47283,0 -2.85172,3.38964 -3.04168,4.33406 -0.23062,1.14656 -1.25164,1.80589 -2.36417,1.52666 -0.43059,-0.10807 -1.69504,-0.9947 -2.80989,-1.97028 -1.83313,-1.60412 -2.18963,-1.77378 -3.72728,-1.77378 -1.91166,0 -4.01568,0.75176 -5.27829,1.8859 l -0.84602,0.75994 0.19563,-0.79375 c 0.25859,-1.04921 -0.57338,-1.05539 -1.30581,-0.01 -0.47856,0.68323 -0.54917,0.70157 -0.54917,0.14265 0,-1.98543 3.18822,-3.91692 7.43749,-4.50578 2.32804,-0.32261 2.40648,-0.30671 4.69699,0.95231 l 2.32941,1.2804 v -1.19654 c 0,-0.65809 0.19056,-1.3871 0.42346,-1.62 0.25914,-0.25915 0.46269,-1.82476 0.52456,-4.03461 0.0837,-2.99045 0.22592,-3.78 0.8274,-4.59354 0.39948,-0.54031 0.63808,-1.12516 0.53024,-1.29965 -0.10784,-0.1745 -1.90105,-1.67958 -3.9849,-3.34463 -2.08385,-1.66505 -4.07997,-3.43175 -4.43583,-3.92598 -0.35585,-0.49425 -1.25787,-2.3592 -2.00448,-4.14435 l -1.35748,-3.24572 -2.22885,-0.10818 c -1.22587,-0.0595 -3.26072,0.072 -4.5219,0.29214 -2.99047,0.52206 -13.23464,1.39293 -16.4552,1.39888 -3.58694,0.007 -9.6544304,-2.00413 -11.0228304,-3.65295 -1.150478,-1.38625 -1.942415,-7.98406 -0.958327,-7.98406 0.615551,0 0.919687,-0.76785 0.919687,-2.32191 0,-1.24999 0.472257,-1.61712 0.84171,-0.65434 0.116402,0.30334 0.377884,0.44878 0.581071,0.3232 0.203187,-0.12557 0.691759,0.18146 1.085715,0.68229 0.537037,0.68273 0.864547,0.83126 1.308755,0.59353 0.325859,-0.1744 0.749663,-0.29305 0.941785,-0.26368 0.192122,0.0294 0.437871,-0.42284 0.546109,-1.00492 l 0.196797,-1.05834 0.6094784,1.14653 c 0.33521,0.63059 0.83219,1.14653 1.10439,1.14653 0.64219,0 1.60363,-0.96688 1.60363,-1.6127 0,-0.27718 0.15875,-0.50397 0.35278,-0.50397 0.19403,0 0.35278,0.15317 0.35278,0.34037 0,0.1872 0.3099,0.50622 0.68867,0.70893 0.5503,0.29451 0.83383,0.21275 1.41111,-0.40689 0.39734,-0.4265 0.72244,-0.63644 0.72244,-0.46654 0,0.1699 0.45884,-0.13068 1.01964,-0.66796 0.72526,-0.69485 1.09582,-0.8536 1.28354,-0.54987 0.19756,0.31966 0.33808,0.29446 0.55897,-0.10024 0.1875,-0.33504 0.61981,-0.46517 1.1859,-0.35695 0.65545,0.12529 0.89084,0.0196 0.89084,-0.4 0,-0.31366 0.23254,-0.57029 0.51676,-0.57029 0.60515,0 1.22171,-1.03974 0.99367,-1.6757 -0.087,-0.24253 0.0621,-0.44097 0.33125,-0.44097 0.26915,0 1.03644,-0.56917 1.70509,-1.26482 1.49273,-1.553 2.62736,-2.16941 5.77956,-3.13981 1.34594,-0.41434 2.49216,-0.90249 2.54716,-1.08478 0.055,-0.18228 -0.45778,-0.7283 -1.13951,-1.21337 -2.93544,-2.08865 -2.97287,-2.13136 -2.97287,-3.39246 0,-0.97057 -0.12805,-1.20308 -0.61736,-1.12092 -0.41596,0.0698 -0.65502,-0.16201 -0.73279,-0.71068 -0.0945,-0.66672 -0.20797,-0.73755 -0.62588,-0.39071 -0.28076,0.23301 -0.62176,0.31235 -0.75779,0.17631 -0.34892,-0.34891 -0.32388,-3.04084 0.0376,-4.04252 0.47748,-1.32318 -0.36526,-0.58012 -1.27756,1.12644 l -0.78871,1.47537 -0.10949,-1.32291 c -0.13619,-1.64556 -0.42743,-1.66567 -1.27695,-0.0882 -0.36572,0.6791 -0.79869,1.23473 -0.96217,1.23473 -0.32386,0 -0.46265,-1.23737 -0.35613,-3.17501 0.064,-1.16468 0.0376,-1.19587 -0.46578,-0.54993 -0.2935,0.37663 -0.53365,0.84354 -0.53365,1.03757 0,0.19402 -0.22291,0.0479 -0.49535,-0.32466 -0.48183,-0.65894 -0.51521,-0.65356 -1.22299,0.19716 -0.40019,0.48102 -0.73291,1.00302 -0.73937,1.15999 -0.007,0.15697 -0.17048,0.18729 -0.36451,0.0674 -0.47485,-0.29347 -0.42027,-1.48824 0.1396,-3.05567 0.38465,-1.07689 0.38257,-1.26153 -0.0125,-1.10992 -0.26065,0.10002 -0.57425,-0.0796 -0.69687,-0.39914 -0.20589,-0.53654 -0.2736,-0.53516 -0.88492,0.0181 -0.63849,0.57783 -0.66197,0.54044 -0.66197,-1.05443 0,-0.90943 0.23603,-2.2184 0.5245,-2.90881 0.37898,-0.90702 0.42448,-1.442211 0.16398,-1.928951 -0.46827,-0.87497 -0.98364,-0.85076 -1.98866,0.0934 l -0.81648,0.767051 v -1.394111 c 0,-0.76676 0.25922,-1.76421 0.57606,-2.21656 0.38538,-0.55021 0.45131,-0.89953 0.19919,-1.05536 -0.46998,-0.29046 0.0612,-4.95219 0.72122,-6.32922 0.31047,-0.64776 1.11534,-1.21557 2.58693,-1.825 1.17494,-0.48658 2.724952,-1.631622 3.81682,-2.19017 1.316897,-0.519348 2.267507,-0.331637 3.671382,-0.372302 2.028224,-0.01838 5.79881,0.838648 7.80813,1.727468 1.76219,0.7795 8.910158,6.029728 12.072638,8.931278 3.55951,3.26582 11.21788,5.306547 14.41316,5.306547 0.75542,0 1.75579,0.17419 2.22306,0.38708 1.10105,0.50168 2.02398,2.4696 2.26827,4.83656 0.12019,1.16454 0.50607,2.30913 1.01251,3.00331 0.45008,0.61691 1.05785,1.44509 1.35062,1.8404 0.31345,0.42323 0.55614,1.58359 0.59028,2.82222 0.0319,1.15691 0.506952,2.77504 0.56154,3.68521 0.121428,2.02463 -0.175968,3.3338 -0.81862,5.55982 -0.546382,2.83705 -1.04726,1.97428 3.17863,6.61694 1.76618,1.94036 3.60811,4.02896 4.09318,4.64132 l 0.88194,1.11339 6.35,0.16227 c 5.49408,0.1404 6.73041,0.28093 9.17222,1.04257 7.45019,2.32382 9.11106,3.44028 16.689193,11.21869 4.66223,4.78544 7.08107,6.95783 10.23056,9.18817 6.82708,4.83466 8.48062,6.28134 11.96931,10.47192 1.83697,2.20655 4.23654,4.72704 5.33239,5.60107 3.03278,2.41893 10.2684,5.74769 19.45494,8.95029 19.26662,6.71672 36.89593,14.33789 44.08277,19.05702 4.32046,2.83696 11.15816,9.42564 10.48279,10.10102 -0.10559,0.10558 -1.98822,-0.76296 -4.18363,-1.93009 -4.97519,-2.64493 -13.67329,-6.2847 -20.43636,-8.55169 -5.78972,-1.94072 -13.6489,-3.63297 -19.71501,-4.24505 -5.21697,-0.52639 -15.41237,-0.18547 -22.40139,0.74908 -2.91042,0.38917 -7.19667,0.88769 -9.525,1.10781 -2.32833,0.22012 -4.37742,0.52747 -4.55352,0.683 -0.58516,0.51677 0.48114,1.28553 3.42245,2.46743 3.36074,1.35044 6.35965,3.9755 6.73312,5.89373 0.12033,0.61805 0.3101,1.59692 0.42171,2.17528 0.11161,0.57835 1.06411,2.3456 2.11667,3.92722 1.05255,1.58162 1.93682,3.21186 1.96502,3.62276 0.11888,1.73185 -0.15757,3.17995 -0.82206,4.30619 -0.82432,1.3971 -0.88182,3.21788 -0.25813,8.17289 0.53755,4.27068 0.2482,8.50762 -0.88222,12.91836 -0.96111,3.75011 -2.4021,6.68807 -3.78771,7.72258 -0.47568,0.35514 -1.84486,0.78424 -3.04262,0.95354 -1.54431,0.21829 -2.62522,0.62917 -3.71613,1.4126 -1.81863,1.30605 -5.17782,2.27156 -6.82684,1.9622 -1.47588,-0.27688 -2.37065,0.19921 -2.93499,1.56163 -0.54146,1.30719 -0.82709,1.34304 -1.36119,0.17081 z" id="path3756-5-2-3-01-7-57-2"/>
      <path id="path3001" d="m 118.79125,256.24249 c -0.2371,-0.52037 -0.31649,-1.48907 -0.18793,-2.29305 0.24538,-1.53447 -0.0971,-1.76487 -1.02044,-0.6865 -0.70529,0.82372 -1.66651,0.88409 -3.81815,0.23983 -2.24669,-0.67272 -3.70332,-0.21169 -4.36962,1.38299 -0.78793,1.88578 -1.32323,1.17538 -1.18607,-1.57405 l 0.11683,-2.34183 -2.14238,0.001 c -1.75033,7.1e-4 -2.41311,0.1801 -3.6218,0.97997 -1.25329,0.82939 -1.51183,0.89462 -1.69137,0.42674 -0.11657,-0.30377 0.0631,-1.27246 0.39925,-2.15266 0.70119,-1.83605 2.7238,-3.51431 4.67696,-3.88073 0.76098,-0.14276 1.30202,-0.47486 1.40306,-0.86123 0.25905,-0.99063 1.9916,-1.51035 4.32852,-1.29844 1.54346,0.13995 2.19707,0.0606 2.49928,-0.30358 0.22508,-0.27121 1.89542,-1.29666 3.71186,-2.27878 3.79621,-2.05256 4.94958,-3.09747 7.12109,-6.45152 7.34185,-11.33996 6.23554,-18.83558 -3.1645,-21.44046 -1.47065,-0.40754 -3.21865,-1.20393 -4.14869,-1.89016 -1.69536,-1.25091 -7.84204,-7.43157 -10.79495,-10.85463 l -1.7484,-2.02689 -3.08091,-0.31004 c -3.678333,-0.37016 -5.332763,-0.10619 -8.384373,1.33774 -2.91977,1.38154 -6.05721,1.51851 -7.56769,0.33037 l -0.96006,-0.75519 -0.91137,0.91137 c -1.19026,1.19025 -0.69466,1.83846 1.64271,2.14853 2.1749,0.2885 3.27839,1.3413 4.84733,4.62465 0.79366,1.66089 1.29602,3.3828 1.53359,5.25658 0.31619,2.49382 0.51103,2.98654 1.85454,4.68985 3.34505,4.24086 3.37441,4.51448 1.10125,10.26168 -1.58704,4.01247 -1.64158,4.27702 -1.87044,9.07189 -0.36023,7.54709 -0.46318,7.64918 -8.31291,8.24422 -3.76073,0.28507 -4.97927,0.56446 -10.915,2.5026 -5.53986,1.80888 -6.82374,2.11696 -7.51312,1.80285 -1.30288,-0.59363 -1.75519,-0.46863 -3.27602,0.90536 -0.7818,0.7063 -1.51828,1.18736 -1.63663,1.06902 -0.44171,-0.44172 -0.19428,-3.06766 0.37024,-3.92922 0.51906,-0.7922 0.52326,-0.89345 0.037,-0.89345 -0.30161,0 -0.63681,0.23045 -0.74489,0.51211 -0.26229,0.68352 -2.50252,1.41196 -3.05819,0.99441 -0.7867,-0.59114 -3.31736,-1.23574 -4.00039,-1.01896 -0.37149,0.11791 -1.19777,0.69145 -1.83615,1.27452 -0.63839,0.58308 -1.23029,1.06015 -1.31533,1.06015 -0.085,0 -0.15461,-0.79375 -0.15461,-1.76389 0,-1.78443 -0.22805,-2.10029 -0.97622,-1.35212 -0.65195,0.65195 -0.94503,-0.59131 -0.4316,-1.83084 0.67585,-1.63165 2.62398,-3.10988 4.95109,-3.75688 1.27713,-0.35507 2.10117,-0.77629 2.10117,-1.07404 0,-0.26942 0.99219,-0.95183 2.20486,-1.51645 1.99085,-0.92694 2.35895,-0.99118 3.79236,-0.66183 2.14184,0.49213 3.3595,0.277 8.10898,-1.43262 4.65022,-1.67389 6.31441,-2.57505 8.29519,-4.49185 2.18572,-2.11511 5.46724,-6.18833 5.47533,-6.7963 0.008,-0.62146 -7.83281,-8.31654 -9.81652,-9.63374 -0.71679,-0.47596 -2.06401,-1.29579 -2.99382,-1.82183 -2.26745,-1.28283 -3.54626,-3.16101 -4.46134,-6.55234 -1.21307,-4.49569 -1.28051,-7.78542 -0.35103,-17.12193 0.82312,-8.26806 0.82439,-8.34803 0.13906,-8.71639 -0.38043,-0.20448 -1.34584,-1.06294 -2.14538,-1.9077 -1.43807,-1.51941 -1.47946,-1.53592 -3.85096,-1.53592 -1.66389,0 -2.5682,0.16394 -2.95602,0.5359 -0.30732,0.29474 -1.4261,0.97471 -2.48618,1.51103 -1.42922,0.72308 -2.41835,1.6104 -3.82675,3.43285 -1.04463,1.35174 -2.04664,2.77522 -2.22668,3.16327 -0.23083,0.4975 -0.27816,0.16408 -0.1605,-1.13071 0.0918,-1.00995 0.42359,-2.22809 0.73736,-2.70698 0.54759,-0.83572 0.54091,-0.86296 -0.1664,-0.678 -0.4053,0.10599 -1.05058,0.59148 -1.43396,1.07886 -0.53434,0.6793 -0.69704,0.74824 -0.69704,0.29535 0,-1.1342 1.40608,-3.33355 2.92902,-4.58149 1.51841,-1.24422 5.09317,-3.03675 6.05605,-3.03675 1.08145,0 0.85511,-0.76973 -0.69863,-2.37584 -0.89447,-0.92461 -1.88906,-2.11767 -2.21021,-2.65124 -0.32115,-0.53358 -0.6872,-0.97014 -0.81344,-0.97014 -0.47283,0 -2.85172,3.38964 -3.04168,4.33406 -0.23062,1.14656 -1.25164,1.80589 -2.36417,1.52666 -0.43059,-0.10807 -1.69504,-0.9947 -2.80989,-1.97028 -1.83313,-1.60412 -2.18963,-1.77378 -3.72728,-1.77378 -1.91166,0 -4.01568,0.75176 -5.27829,1.8859 l -0.84602,0.75994 0.19563,-0.79375 c 0.25859,-1.04921 -0.57338,-1.05539 -1.30581,-0.01 -0.47856,0.68323 -0.54917,0.70157 -0.54917,0.14265 0,-1.98543 3.18822,-3.91692 7.43749,-4.50578 2.32804,-0.32261 2.40648,-0.30671 4.69699,0.95231 l 2.32941,1.2804 v -1.19654 c 0,-0.65809 0.19056,-1.3871 0.42346,-1.62 0.25914,-0.25915 0.46269,-1.82476 0.52456,-4.03461 0.0837,-2.99045 0.22592,-3.78 0.8274,-4.59354 0.39948,-0.54031 0.63808,-1.12516 0.53024,-1.29965 -0.10784,-0.1745 -1.90105,-1.67958 -3.9849,-3.34463 -2.08385,-1.66505 -4.07997,-3.43175 -4.43583,-3.92598 -0.35585,-0.49425 -1.25787,-2.3592 -2.00448,-4.14435 l -1.35748,-3.24572 -2.22885,-0.10818 c -1.22587,-0.0595 -3.26072,0.072 -4.5219,0.29214 -2.99047,0.52206 -13.23464,1.39293 -16.4552,1.39888 -3.58694,0.007 -9.6544304,-2.00413 -11.0228304,-3.65295 -1.150478,-1.38625 -1.942415,-7.98406 -0.958327,-7.98406 0.615551,0 0.919687,-0.76785 0.919687,-2.32191 0,-1.24999 0.472257,-1.61712 0.84171,-0.65434 0.116402,0.30334 0.377884,0.44878 0.581071,0.3232 0.203187,-0.12557 0.691759,0.18146 1.085715,0.68229 0.537037,0.68273 0.864547,0.83126 1.308755,0.59353 0.325859,-0.1744 0.749663,-0.29305 0.941785,-0.26368 0.192122,0.0294 0.437871,-0.42284 0.546109,-1.00492 l 0.196797,-1.05834 0.6094784,1.14653 c 0.33521,0.63059 0.83219,1.14653 1.10439,1.14653 0.64219,0 1.60363,-0.96688 1.60363,-1.6127 0,-0.27718 0.15875,-0.50397 0.35278,-0.50397 0.19403,0 0.35278,0.15317 0.35278,0.34037 0,0.1872 0.3099,0.50622 0.68867,0.70893 0.5503,0.29451 0.83383,0.21275 1.41111,-0.40689 0.39734,-0.4265 0.72244,-0.63644 0.72244,-0.46654 0,0.1699 0.45884,-0.13068 1.01964,-0.66796 0.72526,-0.69485 1.09582,-0.8536 1.28354,-0.54987 0.19756,0.31966 0.33808,0.29446 0.55897,-0.10024 0.1875,-0.33504 0.61981,-0.46517 1.1859,-0.35695 0.65545,0.12529 0.89084,0.0196 0.89084,-0.4 0,-0.31366 0.23254,-0.57029 0.51676,-0.57029 0.60515,0 1.22171,-1.03974 0.99367,-1.6757 -0.087,-0.24253 0.0621,-0.44097 0.33125,-0.44097 0.26915,0 1.03644,-0.56917 1.70509,-1.26482 1.49273,-1.553 2.62736,-2.16941 5.77956,-3.13981 1.34594,-0.41434 2.49216,-0.90249 2.54716,-1.08478 0.055,-0.18228 -0.45778,-0.7283 -1.13951,-1.21337 -2.93544,-2.08865 -2.97287,-2.13136 -2.97287,-3.39246 0,-0.97057 -0.12805,-1.20308 -0.61736,-1.12092 -0.41596,0.0698 -0.65502,-0.16201 -0.73279,-0.71068 -0.0945,-0.66672 -0.20797,-0.73755 -0.62588,-0.39071 -0.28076,0.23301 -0.62176,0.31235 -0.75779,0.17631 -0.34892,-0.34891 -0.32388,-3.04084 0.0376,-4.04252 0.47748,-1.32318 -0.36526,-0.58012 -1.27756,1.12644 l -0.78871,1.47537 -0.10949,-1.32291 c -0.13619,-1.64556 -0.42743,-1.66567 -1.27695,-0.0882 -0.36572,0.6791 -0.79869,1.23473 -0.96217,1.23473 -0.32386,0 -0.46265,-1.23737 -0.35613,-3.17501 0.064,-1.16468 0.0376,-1.19587 -0.46578,-0.54993 -0.2935,0.37663 -0.53365,0.84354 -0.53365,1.03757 0,0.19402 -0.22291,0.0479 -0.49535,-0.32466 -0.48183,-0.65894 -0.51521,-0.65356 -1.22299,0.19716 -0.40019,0.48102 -0.73291,1.00302 -0.73937,1.15999 -0.007,0.15697 -0.17048,0.18729 -0.36451,0.0674 -0.47485,-0.29347 -0.42027,-1.48824 0.1396,-3.05567 0.38465,-1.07689 0.38257,-1.26153 -0.0125,-1.10992 -0.26065,0.10002 -0.57425,-0.0796 -0.69687,-0.39914 -0.20589,-0.53654 -0.2736,-0.53516 -0.88492,0.0181 -0.63849,0.57783 -0.66197,0.54044 -0.66197,-1.05443 0,-0.90943 0.23603,-2.2184 0.5245,-2.90881 0.37898,-0.90702 0.42448,-1.442211 0.16398,-1.928951 -0.46827,-0.87497 -0.98364,-0.85076 -1.98866,0.0934 l -0.81648,0.767051 v -1.394111 c 0,-0.76676 0.25922,-1.76421 0.57606,-2.21656 0.38538,-0.55021 0.45131,-0.89953 0.19919,-1.05536 -0.46998,-0.29046 0.0612,-4.95219 0.72122,-6.32922 0.31047,-0.64776 1.11534,-1.21557 2.58693,-1.825 1.17494,-0.48658 2.724952,-1.631622 3.81682,-2.19017 1.316897,-0.519348 2.267507,-0.331637 3.671382,-0.372302 2.028224,-0.01838 5.79881,0.838648 7.80813,1.727468 1.76219,0.7795 8.910158,6.029728 12.072638,8.931278 3.55951,3.26582 11.21788,5.306547 14.41316,5.306547 0.75542,0 1.75579,0.17419 2.22306,0.38708 1.10105,0.50168 2.02398,2.4696 2.26827,4.83656 0.12019,1.16454 0.50607,2.30913 1.01251,3.00331 0.45008,0.61691 1.05785,1.44509 1.35062,1.8404 0.31345,0.42323 0.55614,1.58359 0.59028,2.82222 0.0319,1.15691 0.506952,2.77504 0.56154,3.68521 0.121428,2.02463 -0.175968,3.3338 -0.81862,5.55982 -0.546382,2.83705 -1.04726,1.97428 3.17863,6.61694 1.76618,1.94036 3.60811,4.02896 4.09318,4.64132 l 0.88194,1.11339 6.35,0.16227 c 5.49408,0.1404 6.73041,0.28093 9.17222,1.04257 7.45019,2.32382 9.11106,3.44028 16.689193,11.21869 4.66223,4.78544 7.08107,6.95783 10.23056,9.18817 6.82708,4.83466 8.48062,6.28134 11.96931,10.47192 1.83697,2.20655 4.23654,4.72704 5.33239,5.60107 3.03278,2.41893 10.2684,5.74769 19.45494,8.95029 19.26662,6.71672 36.89593,14.33789 44.08277,19.05702 4.32046,2.83696 11.15816,9.42564 10.48279,10.10102 -0.10559,0.10558 -1.98822,-0.76296 -4.18363,-1.93009 -4.97519,-2.64493 -13.67329,-6.2847 -20.43636,-8.55169 -5.78972,-1.94072 -13.6489,-3.63297 -19.71501,-4.24505 -5.21697,-0.52639 -15.41237,-0.18547 -22.40139,0.74908 -2.91042,0.38917 -7.19667,0.88769 -9.525,1.10781 -2.32833,0.22012 -4.37742,0.52747 -4.55352,0.683 -0.58516,0.51677 0.48114,1.28553 3.42245,2.46743 3.36074,1.35044 6.35965,3.9755 6.73312,5.89373 0.12033,0.61805 0.3101,1.59692 0.42171,2.17528 0.11161,0.57835 1.06411,2.3456 2.11667,3.92722 1.05255,1.58162 1.93682,3.21186 1.96502,3.62276 0.11888,1.73185 -0.15757,3.17995 -0.82206,4.30619 -0.82432,1.3971 -0.88182,3.21788 -0.25813,8.17289 0.53755,4.27068 0.2482,8.50762 -0.88222,12.91836 -0.96111,3.75011 -2.4021,6.68807 -3.78771,7.72258 -0.47568,0.35514 -1.84486,0.78424 -3.04262,0.95354 -1.54431,0.21829 -2.62522,0.62917 -3.71613,1.4126 -1.81863,1.30605 -5.17782,2.27156 -6.82684,1.9622 -1.47588,-0.27688 -2.37065,0.19921 -2.93499,1.56163 -0.54146,1.30719 -0.82709,1.34304 -1.36119,0.17081 z" style="display:inline;fill:#000000;fill-opacity:1;stroke-width:0.35277778"/>
    </g>
    <path id="path49-1-9-7-5-27-6-4-3-83-4" d="m 30.145614,162.31883 v 0 c 5.9319,-0.84903 151.379406,-18.49194 151.730406,-18.45896 0.3087,0.0284 0.5334,0.38958 0.642,1.03033 0.091,0.54197 2.3124,12.981 4.9345,27.64224 2.6751,14.95696 4.65571,26.74662 4.5128,26.86138 -0.20789,0.16677 0,0 -154.731405,0.45684 0,0 0.776599,-0.0269 0,0 -7.088301,-37.53183 0,0 -7.088301,-37.53183 z" style="fill:#000000;stroke-width:0.28222102"/>
    <path id="path49-1-9-7-5-6-4-9-65-5" d="m 32.302014,163.77075 v 0 c 5.906602,-1.23645 143.554116,-15.78972 143.886906,-15.76161 0.29281,0.0248 0.50591,0.33269 0.60881,0.87982 0.087,0.46284 2.1928,11.0842 4.6795,23.60293 2.5367,12.77142 4.41499,22.83821 4.2794,22.93619 -0.19711,0.14237 0,0 -146.732814,0.39009 0,0 0.736499,-0.0237 0,0 l -0.2584,-1.23215 z" style="fill:#ffffff;fill-opacity:1;stroke-width:0.25395688"/>
    <path id="path51-9-14-1-3-2-60-0-8-2" d="m 44.721716,188.98133 c 0.153299,-1.06671 0.8475,-6.00016 1.542698,-10.96333 0.695301,-4.96321 1.371801,-9.10637 1.5035,-9.20725 0.3722,-0.28506 5.488001,-0.6629 6.982801,-0.51584 1.643899,0.16104 2.738999,0.84177 3.189399,1.98064 0.271901,0.68761 0.268102,1.48512 -0.019,3.92617 -0.311799,2.65331 -0.4626,3.2313 -1.1259,4.31825 -0.958401,1.57058 -2.7607,2.65281 -4.822899,2.89572 -2.796501,0.32962 -2.536399,-0.0642 -3.1755,4.8104 -0.309902,2.36342 -0.6573,4.38104 -0.772002,4.48362 -0.114599,0.10255 -0.967499,0.19216 -1.8952,0.1988 l -1.6867,0.0124 z m 8.354599,-11.1596 c 0.465101,-0.40201 0.6745,-0.9787 0.9636,-2.6546 0.5603,-3.24759 0.242001,-3.87385 -1.898201,-3.73501 -1.368398,0.0889 -1.327499,0.001 -1.874099,4.07026 l -0.3839,2.85914 1.2992,-0.0135 c 0.8583,-0.0102 1.500899,-0.18732 1.8934,-0.52666 z m 4.8826,11.04551 c 0.257,-2.92203 2.9263,-21.16296 3.117699,-21.30536 0.307502,-0.2288 6.653202,-0.71541 7.891201,-0.6051 1.300599,0.1195 2.6103,1.03957 3.0349,2.14101 0.3219,0.83489 0.028,4.54416 -0.468,5.89887 -0.1998,0.54655 -0.8596,1.45903 -1.466199,2.0281 -1.185701,1.11248 -1.3228,1.35468 -0.7933,1.40185 0.1866,0.0162 0.591298,0.36215 0.899398,0.76778 0.551902,0.72671 0.553802,0.8109 0.122401,5.7145 l -0.4377,4.97684 -1.8112,0.0701 c -0.996201,0.0365 -1.896999,0.0164 -2.002001,-0.0485 -0.105098,-0.0653 -0.01,-2.03558 0.213701,-4.37861 0.394999,-4.15665 0.3913,-4.27322 -0.1461,-4.8096 -0.431999,-0.43108 -0.798399,-0.53678 -1.6989,-0.49018 -0.631601,0.0295 -1.2104,0.11312 -1.286399,0.17885 -0.076,0.065 -0.422101,2.15977 -0.769102,4.65378 -0.346998,2.49382 -0.6848,4.66714 -0.7508,4.82953 -0.066,0.16247 -0.624099,0.3288 -1.240298,0.36955 -0.616101,0.0403 -1.442402,0.10863 -1.836102,0.15001 l -0.715799,0.0756 z m 8.789501,-12.61603 c 0.574198,-0.49636 0.7952,-0.98654 1.0503,-2.32954 0.402498,-2.11888 0.327898,-2.98461 -0.293401,-3.4034 -0.669801,-0.4516 -2.689601,-0.28706 -3.0288,0.2461 -0.148801,0.234 -0.424201,1.71151 -0.611801,3.28332 l -0.341199,2.85782 1.248799,-0.0131 c 0.896702,-0.0111 1.453902,-0.19004 1.976102,-0.64139 z m 5.640199,12.66558 c 0.189201,-2.34175 3.045701,-22.11201 3.239299,-22.41968 0.214802,-0.34143 3.592801,-0.86459 3.926002,-0.60792 0.1906,0.14687 -3.059301,23.36891 -3.300701,23.58397 -0.1011,0.0902 -1.0257,0.17286 -2.054799,0.18424 l -1.8713,0.02 0.061,-0.76071 z m 7.131299,0.3428 c -0.09,-0.22738 3.167205,-23.54978 3.306805,-23.67929 0.045,-0.0415 1.3976,-0.19971 3.006302,-0.35141 2.022199,-0.19093 2.969299,-0.18465 3.069,0.0213 0.079,0.1634 0.216098,3.80722 0.304098,8.09719 0.088,4.28999 0.203301,7.85379 0.2564,7.91945 0.053,0.0658 0.154601,0.0687 0.2256,0.01 0.071,-0.062 1.231302,-3.78007 2.578301,-8.26353 1.346901,-4.48345 2.549099,-8.26841 2.6715,-8.41076 0.231101,-0.26897 6.1337,-0.82264 6.3201,-0.59284 0.1576,0.19434 -3.301799,24.26154 -3.515101,24.45424 -0.2642,0.2389 -3.779898,0.38799 -3.9653,0.16863 -0.086,-0.1017 0.381701,-3.90899 1.039702,-8.46053 0.657598,-4.5518 1.154398,-8.32943 1.104,-8.39492 -0.051,-0.0649 -0.153101,-0.0658 -0.2282,4e-5 -0.075,0.0641 -1.324801,3.87514 -2.7769,8.46698 -1.452102,4.59185 -2.755001,8.44799 -2.895402,8.56928 -0.1402,0.12127 -0.995,0.18515 -1.899499,0.14145 l -1.644402,-0.0786 -0.278399,-8.13307 c -0.261398,-7.63508 -0.326099,-8.54355 -0.5914,-8.28769 -0.086,0.0838 -2.306299,15.38875 -2.386301,16.45127 -0.014,0.17505 -0.461899,0.35026 -0.997198,0.38935 -0.535205,0.0404 -1.343404,0.0953 -1.795905,0.12602 -0.452501,0.0311 -0.861099,-0.0415 -0.907899,-0.15956 z m 21.591206,-1.41157 c 0.03,-0.32674 0.8005,-5.79638 1.7129,-12.1549 0.9123,-6.35842 1.671,-11.69471 1.686,-11.85846 0.032,-0.3481 4.231,-0.82634 4.50341,-0.51292 0.16539,0.19051 -0.43121,4.71286 -2.60451,19.74247 -0.3865,2.67313 -0.7908,4.93893 -0.8982,5.03501 -0.1719,0.15352 -3.2751,0.42824 -4.1333,0.36594 -0.176,-0.0148 -0.296,-0.2906 -0.2663,-0.61714 z m 11.9608,-1.15401 c 0.061,-0.70363 0.7313,-5.58031 1.4876,-10.83701 0.7563,-5.2568 1.326,-9.6182 1.2661,-9.69198 -0.096,-0.11824 -1.9643,-0.0111 -4.1397,0.23823 l -0.7287,0.0829 0.2351,-1.79917 0.235,-1.79916 6.88891,-0.63493 c 3.78889,-0.3494 7.20609,-0.61371 7.59379,-0.58778 0.6919,0.0465 0.7024,0.0759 0.56641,1.62226 -0.16581,1.88183 -0.23121,1.9262 -3.15271,2.13088 -1.1416,0.0802 -2.1626,0.21126 -2.2688,0.29203 -0.1062,0.0808 -0.8517,4.8178 -1.6565,10.52732 -0.8049,5.70943 -1.532,10.62848 -1.6159,10.9313 -0.1242,0.44839 -0.4048,0.5613 -1.5148,0.60963 -0.7493,0.0349 -1.80009,0.094 -2.3354,0.12714 l -0.9728,0.0675 z m 12.2536,0.51697 c -0.1335,-0.30712 3.49851,-25.44069 3.7206,-25.74691 0.2295,-0.31645 4.5358,-0.62405 4.7658,-0.34046 0.1514,0.18655 -2.627,20.53942 -3.32419,24.35107 l -0.31131,1.70203 -1.4226,0.0509 c -0.7824,0.0265 -1.85339,0.0864 -2.3802,0.12163 -0.5267,0.039 -0.9983,-0.0236 -1.0481,-0.13762 z m 11.7169,-13.40549 c -0.3785,-7.56408 -0.53979,-12.92364 -0.39229,-13.04006 0.39529,-0.31209 4.64799,-0.64266 4.8753,-0.37913 0.11249,0.13044 0.30499,4.17685 0.4284,8.99212 0.25809,10.12161 0.28849,10.64013 0.60609,10.35377 0.13011,-0.11713 1.62771,-4.69066 3.3282,-10.16319 1.7004,-5.47254 3.1354,-9.98788 3.18901,-10.03428 0.19129,-0.16525 4.6502,-0.4893 4.76619,-0.34635 0.1212,0.14953 -8.7211,26.62814 -9.0382,27.06514 -0.1844,0.2542 -4.6632,0.59032 -6.2155,0.46652 l -0.9034,-0.0766 z m 15.4937,12.13145 c -0.053,-0.13032 0.2668,-2.71915 0.7101,-5.75315 0.4441,-3.03403 1.311,-9.00408 1.9265,-13.2668 0.6155,-4.26264 1.2112,-7.83684 1.3238,-7.94269 0.2028,-0.19049 14.27411,-1.57572 15.1932,-1.49559 0.42821,0.0367 0.45101,0.21822 0.2209,1.74762 -0.1412,0.93835 -0.37639,1.80873 -0.52259,1.93441 -0.14611,0.1254 -2.35931,0.40301 -4.91811,0.61662 -2.5589,0.21355 -4.7493,0.47432 -4.86769,0.5793 -0.11841,0.10493 -0.43561,1.75787 -0.7049,3.67307 -0.40621,2.88958 -0.4288,3.48696 -0.13321,3.50929 0.19581,0.0168 1.7585,-0.082 3.472,-0.2186 4.4306,-0.34847 4.0775,-0.50995 3.79091,1.73467 l -0.24351,1.90756 -3.88069,0.2646 c -2.1345,0.1457 -3.93561,0.31213 -4.00271,0.37012 -0.1923,0.16617 -1.2884,8.05578 -1.1439,8.23381 0.071,0.088 2.077,0.0676 4.4572,-0.0447 6.07771,-0.28347 5.5861,-0.44618 5.18521,1.67569 -0.1835,0.97145 -0.4136,1.83286 -0.51121,1.91407 -0.097,0.0814 -3.14679,0.26652 -6.7759,0.41116 -3.6291,0.14524 -7.02129,0.29093 -7.5383,0.32466 -0.5169,0.0341 -0.98359,-0.0454 -1.0371,-0.17629 z" style="fill:#000000;fill-opacity:1;stroke-width:0.26092404"/>
    <path id="path1115-16-1-88-8-0-6-80-96-6-0" d="m 38.970515,132.66508 2.0608,-0.3991 c 1.131099,-0.21967 2.9224,-0.55946 3.979101,-0.75549 1.056798,-0.19587 3.816098,-0.71461 6.131798,-1.15294 2.3119,-0.43819 5.5036,-1.0367 7.0906,-1.32999 1.583301,-0.29327 3.8559,-0.72726 5.049901,-0.96438 1.190099,-0.23738 3.1895,-0.61513 4.4468,-0.8396 1.253299,-0.2247 2.929001,-0.53786 3.7237,-0.69614 1.5571,-0.3096 4.078399,-0.7981 6.014601,-1.16344 13.443305,-2.53998 18.372704,-3.71076 19.361703,-3.60662 v 0 c -0.965898,16.83708 -0.720799,8.1121 -2.1287,29.35309 -3.1999,0.26604 -5.5997,0.81948 -16.283405,2.14178 -6.646,0.82219 -11.0064,1.37314 -18.2664,2.30628 -1.970698,0.25349 -4.282098,0.53752 -5.131199,0.63105 -0.8529,0.0937 -2.4101,0.29151 -3.465801,0.43927 -1.0521,0.14801 -3.040399,0.41261 -4.418399,0.58871 -1.3814,0.17646 -3.636301,0.46628 -5.018101,0.64487 -1.3781,0.17902 -3.5273,0.4456 -4.773099,0.59283 -2.149602,0.25333 -1.498499,0.20185 -2.148901,0.27509 2.330601,-17.13241 3.580001,-25.09777 3.775001,-26.06527 z" style="fill:#000000;stroke-width:0.23999105"/>
    <path id="path1115-16-1-88-3-4-1-3" d="m 40.518516,133.5133 1.872599,-0.34574 c 1.029999,-0.19024 2.659599,-0.48455 3.6214,-0.65433 0.9618,-0.16968 3.470801,-0.61907 5.575699,-0.99869 2.1048,-0.37962 5.0073,-0.898 6.449901,-1.15209 1.442599,-0.25398 3.5095,-0.62989 4.593199,-0.83533 1.083601,-0.20563 2.904,-0.53278 4.045402,-0.72727 1.141299,-0.19457 2.666199,-0.46584 3.388699,-0.60293 1.4137,-0.26821 3.7103,-0.69136 5.469501,-1.00776 12.228703,-2.20012 16.712404,-3.21422 17.612103,-3.12402 v 0 c -0.8773,14.58404 -0.654399,7.02662 -1.934599,25.42541 -2.914001,0.23052 -5.0966,0.70977 -14.812404,1.85495 -6.044602,0.71231 -10.013601,1.18954 -16.6166,1.99795 -1.792502,0.21937 -3.893201,0.46533 -4.668401,0.54645 -0.7752,0.0813 -2.1926,0.25245 -3.149801,0.38041 -0.957199,0.12823 -2.766799,0.35763 -4.0214,0.51003 -1.254498,0.15272 -3.307699,0.40392 -4.562499,0.55872 -1.2549,0.15483 -3.2093,0.38577 -4.343299,0.51323 -1.954901,0.21965 -1.364202,0.17509 -1.954202,0.23845 2.119302,-14.83991 3.256701,-21.73942 3.434702,-22.57744 z" style="fill:#ffffff;fill-opacity:1;stroke-width:0.21302503"/>
    <path id="path51-9-1-4-6-8-8-8-6-9" d="m 43.601414,150.9391 c 0.01,-0.42907 0.736301,-10.79831 1.0164,-14.4928 0.053,-0.69961 0.170802,-1.34503 0.261001,-1.43447 0.09,-0.0897 1.106,-0.3015 2.256499,-0.47134 2.310701,-0.34088 3.6244,-0.19207 4.066402,0.46104 0.4948,0.73093 0.6897,2.07236 0.507399,3.49374 -0.2224,1.73399 -0.4495,2.32804 -1.179401,3.08409 l -0.581099,0.60219 0.450699,0.34084 c 0.732401,0.55401 0.891201,1.58213 0.7635,4.94118 l -0.119398,3.14304 -0.756701,0.11407 c -1.848202,0.27761 -1.734301,0.48908 -1.659199,-3.0816 0.074,-3.49854 0.01,-3.71366 -1.155002,-3.7394 -0.9531,-0.0218 -1.0488,0.27828 -1.299001,4.06698 -0.112199,1.69975 -0.240199,3.12609 -0.284297,3.16966 -0.044,0.0434 -0.579202,0.12905 -1.189101,0.18989 -1.043501,0.10443 -1.108501,0.0805 -1.098701,-0.38664 z m 5.021001,-9.89612 c 0.445399,-0.42339 0.789001,-2.64646 0.565301,-3.65841 -0.120902,-0.54754 -0.204701,-0.58724 -1.148102,-0.54565 l -1.0175,0.0475 -0.187399,2.21982 c -0.102999,1.2208 -0.140801,2.30153 -0.084,2.40179 0.1587,0.27923 1.4189,-0.0325 1.871599,-0.46261 z m 3.283799,8.79206 c 0.077,-0.33469 0.930601,-4.17461 1.8977,-8.53321 0.9671,-4.35879 1.800702,-7.96676 1.8527,-8.01811 0.135501,-0.13392 3.292502,-0.66618 3.3851,-0.57067 0.091,0.0949 1.5786,16.67318 1.5039,16.76611 -0.028,0.0358 -0.573799,0.13718 -1.212998,0.22743 -1.376601,0.19431 -1.474602,0.0957 -1.451102,-1.4629 0.02299,-1.51214 -0.1426,-1.73543 -1.1743,-1.58382 -2.1306,0.31287 -1.9445,0.15406 -2.2795,1.94111 -0.2903,1.54836 -0.336798,1.63355 -0.954299,1.74681 -0.356999,0.0647 -0.8871,0.11345 -1.177901,0.10779 -0.463799,-0.0101 -0.511598,-0.0867 -0.3893,-0.62015 z m 5.609802,-5.62183 c 0.105899,-0.10214 -0.256601,-6.42017 -0.411501,-7.17224 -0.058,-0.28208 -0.1425,-0.47667 -0.187299,-0.43229 -0.114202,0.11275 -1.523201,7.0403 -1.534901,7.54636 -0.01,0.36807 0.104799,0.39927 1.017,0.27966 0.564499,-0.0734 1.066999,-0.17363 1.116701,-0.22149 z m 4.225499,4.9394 c 0.019,-0.91912 1.261401,-17.03519 1.317101,-17.09015 0.257498,-0.25455 4.915498,-0.82953 5.6749,-0.70055 0.9926,0.16866 1.866,1.04854 2.102998,2.11876 0.167701,0.75714 -0.545798,10.98623 -0.840698,12.05089 -0.601601,2.17276 -2.0496,3.16283 -5.194501,3.55194 -2.427099,0.30039 -3.064999,0.31466 -3.0598,0.0687 z m 5.180499,-3.11206 c 0.489601,-0.48397 0.698402,-1.99729 0.9765,-7.07861 0.282102,-5.15435 0.2662,-5.21426 -1.330999,-5.02905 -0.483899,0.0562 -0.933101,0.15459 -0.998001,0.21892 -0.157699,0.15572 -1.007898,11.90246 -0.886999,12.2507 0.1261,0.36233 1.7766,0.0953 2.239499,-0.36196 z m 4.862902,1.04059 c 0.083,-0.65735 0.379399,-4.59255 0.658799,-8.74506 0.328501,-4.87603 0.597199,-7.63879 0.758801,-7.80093 0.137499,-0.13796 0.7605,-0.30865 1.384199,-0.37935 l 1.1341,-0.12877 -0.031,1.18774 c -0.045,1.75861 -1.149202,16.63399 -1.241401,16.72506 -0.044,0.0434 -0.694499,0.13626 -1.446699,0.20728 l -1.367502,0.12916 0.1509,-1.19516 z m 6.378299,0.0135 c -1.556699,-0.87638 -1.6862,-2.06153 -1.072599,-9.81546 0.360899,-4.56198 0.502999,-5.20402 1.429599,-6.46574 1.731301,-2.35746 5.997604,-2.80734 7.267205,-0.76635 0.564401,0.90717 0.577601,2.17789 0.091,8.69789 -0.337301,4.51381 -0.534299,5.48821 -1.348501,6.66714 -1.21321,1.75646 -4.630405,2.65957 -6.366204,1.68252 z m 3.508801,-2.44335 c 0.229003,-0.12005 0.523904,-0.41523 0.655304,-0.65581 0.387999,-0.7107 1.113399,-11.30259 0.8206,-11.9827 -0.456501,-1.06019 -2.098905,-0.78293 -2.613305,0.44117 -0.439801,1.04666 -1.1469,11.24403 -0.824899,11.89836 0.2638,0.53635 1.228799,0.68334 1.9623,0.29898 z" style="fill:#000000;fill-opacity:1;stroke-width:0.2188693"/>
  </g>
</svg>